<svg width="346" height="346" viewBox="0 0 346 346" fill="none" xmlns="http://www.w3.org/2000/svg">
<path d="M23.925 86.884C-23.475 168.984 4.78606 274.042 87.0471 321.536C114.183 337.202 143.803 344.643 173.019 344.641L172.977 295.914C152.049 295.915 130.832 290.587 111.393 279.364C52.4671 245.343 32.2231 170.088 66.1771 111.279C72.9011 99.632 68.8911 84.732 57.2241 77.996C45.5561 71.259 30.646 75.239 23.923 86.883L23.925 86.884Z" fill="url(#paint0_linear_1908_7696)"/>
<path d="M173.028 345.448C267.72 345.129 344.739 267.81 345.06 172.751C345.165 141.394 336.907 112.027 322.399 86.757L280.189 111.316C290.58 129.418 296.497 150.454 296.422 172.915C296.193 241.008 241.022 296.392 173.192 296.621C159.761 296.667 148.836 307.633 148.791 321.117C148.747 334.6 159.597 345.494 173.028 345.448Z" fill="url(#paint1_linear_1908_7696)"/>
<path d="M321.83 86.508C274.39 4.282 169.275 -23.863 87.0492 23.641C59.9262 39.312 38.6872 61.258 24.0972 86.583L66.3232 110.962C76.7732 92.821 91.9892 77.101 111.417 65.876C170.316 31.847 245.612 52.01 279.595 110.909C286.324 122.572 301.234 126.563 312.897 119.826C324.56 113.088 328.559 98.171 321.83 86.508Z" fill="url(#paint2_linear_1908_7696)"/>
<path d="M172.553 281.582C233.028 281.582 282.053 232.782 282.053 172.582C282.053 112.383 233.028 63.582 172.553 63.582C112.078 63.582 63.053 112.383 63.053 172.582C63.053 232.782 112.078 281.582 172.553 281.582Z" fill="#F2F2F2"/>
<path d="M47.7221 95.039C45.6071 93.317 42.4961 93.637 40.7721 95.755C39.0491 97.873 39.3661 100.986 41.4801 102.708C43.5951 104.43 46.7071 104.11 48.4301 101.992C50.1531 99.874 49.8361 96.761 47.7221 95.039Z" fill="white"/>
<path d="M175.763 316.715C173.835 314.786 170.707 314.788 168.777 316.719C166.847 318.65 166.846 321.78 168.774 323.709C170.702 325.638 173.829 325.637 175.759 323.705C177.689 321.774 177.691 318.645 175.763 316.715Z" fill="white"/>
<path d="M305.065 98.775C305.105 96.045 302.927 93.802 300.199 93.765C297.471 93.727 295.227 95.909 295.187 98.639C295.146 101.368 297.325 103.611 300.053 103.649C302.78 103.686 305.024 101.504 305.065 98.775Z" fill="white"/>
<defs>
<linearGradient id="paint0_linear_1908_7696" x1="80.7272" y1="303.559" x2="112.861" y2="44.9314" gradientUnits="userSpaceOnUse">
<stop stop-color="white" stop-opacity="0"/>
<stop offset="0.7599" stop-color="#F26223"/>
<stop offset="1" stop-color="#08006A" stop-opacity="0.8229"/>
</linearGradient>
<linearGradient id="paint1_linear_1908_7696" x1="327.36" y1="197.976" x2="95.9165" y2="258.986" gradientUnits="userSpaceOnUse">
<stop stop-color="white" stop-opacity="0"/>
<stop offset="0.7599" stop-color="#F26223"/>
<stop offset="1" stop-color="#08006A" stop-opacity="0.8229"/>
</linearGradient>
<linearGradient id="paint2_linear_1908_7696" x1="27.9083" y1="95.3745" x2="370.784" y2="38.6715" gradientUnits="userSpaceOnUse">
<stop stop-color="white" stop-opacity="0"/>
<stop offset="0.7599" stop-color="#F26223"/>
<stop offset="1" stop-color="#08006A" stop-opacity="0.8229"/>
</linearGradient>
</defs>
</svg>
