<?xml version="1.0" encoding="UTF-8"?>
<svg version="1.1" xmlns="http://www.w3.org/2000/svg" width="979" height="332">
<path d="M0 0 C0.6688623 0.0898114 1.33772461 0.1796228 2.02685547 0.27215576 C86.31934136 11.68483062 168.51287787 39.4347268 262 82 C264.66134272 83.34408238 267.32942497 84.67436827 270 86 C266.89643139 81.68903431 263.70275237 77.62466256 260.0625 73.75 C243.22111839 55.23300032 223.46377999 31.16968923 223.43359375 5.05859375 C224.2283395 0.76696668 226.30906048 -1.77552656 229.8125 -4.3125 C235.9633934 -6.24563793 241.05263619 -4.59406507 246.5625 -1.75 C247.6002356 -1.21971191 247.6002356 -1.21971191 248.65893555 -0.67871094 C260.51543721 5.68483341 269.59973494 15.28727203 278.44091797 25.26757812 C281.54389215 28.71554317 284.74970185 32.0681729 287.9375 35.4375 C306.51917844 55.13491211 306.51917844 55.13491211 315 65 C315.90086645 66.03530874 316.80192587 67.07044958 317.703125 68.10546875 C324.2460909 75.64765412 330.52205668 83.35337413 336.63671875 91.24560547 C338.92990436 94.19668567 341.24837665 97.12783188 343.5625 100.0625 C346.26770224 103.49442294 348.95952195 106.93411197 351.59765625 110.41796875 C357.71048242 118.48891967 364.06602936 126.16964734 371.3125 133.26171875 C371.89088623 133.82955078 372.46927246 134.39738281 373.06518555 134.98242188 C374.19690787 136.08678805 375.33598736 137.18368496 376.48364258 138.27148438 C382.4737666 144.09051428 385.6367849 149.68373009 386.08984375 158.1640625 C385.84398946 165.92450659 383.319354 171.68899389 377.93359375 177.25390625 C361.98319122 191.65760308 333.64573472 192.38692108 313.29296875 195.234375 C311.26914232 195.52006842 309.24532352 195.80581591 307.22151184 196.09161377 C303.01278567 196.68417416 298.80337047 197.27154329 294.59350586 197.85595703 C289.26714474 198.59643751 283.94384833 199.35692597 278.62101269 200.12228012 C274.45167425 200.71819038 270.28040152 201.2996148 266.10851479 201.877388 C264.14790549 202.15125996 262.18798805 202.43014476 260.22890282 202.71471405 C241.16377152 205.47376951 222.12039982 206.54907996 203.125 202.75 C201.96871094 202.54503906 200.81242188 202.34007812 199.62109375 202.12890625 C190.69847587 200.45019251 181.87708585 198.50636934 176.09765625 190.98828125 C173.40812295 186.11649316 173.57493984 181.64356593 174.9375 176.375 C184.26138481 161.11773395 206.78363083 155.45725708 223.16845703 151.47265625 C234.58772715 148.8845379 245.81874781 147.8342028 257.48632812 147.39453125 C258.38158203 147.35714844 259.27683594 147.31976563 260.19921875 147.28125 C261.00190186 147.25095703 261.80458496 147.22066406 262.6315918 147.18945312 C265.147657 146.98818866 267.53633851 146.54025026 270 146 C269.0927417 145.71503662 268.1854834 145.43007324 267.25073242 145.13647461 C244.70720912 138.01425063 223.01576376 129.73180905 201.43847656 120.08959961 C166.11273979 104.08442581 166.11273979 104.08442581 130 90 C129.21294678 89.72045471 128.42589355 89.44090942 127.61499023 89.15289307 C42.33685963 58.90255741 -42.42146459 41.86201767 -138 43 C-139.05734344 43.01450195 -139.05734344 43.01450195 -140.13604736 43.02929688 C-187.89079901 43.73254218 -235.18405813 49.82664152 -282 59 C-283.92295898 59.37366699 -283.92295898 59.37366699 -285.88476562 59.75488281 C-363.98382582 75.27806879 -443.31511415 104.52497798 -512 145 C-513.13308594 145.66370605 -513.13308594 145.66370605 -514.2890625 146.34082031 C-521.08198879 150.32703297 -527.78606394 154.3315907 -534.0703125 159.1015625 C-536.73410888 160.34179158 -538.25122106 159.89222661 -541 159 C-543 157 -543 157 -543.4375 154 C-543.01837235 143.83615449 -535.21384392 136.36826513 -528.50585938 129.53662109 C-527.02424409 128.02473935 -525.56587574 126.4930763 -524.109375 124.95703125 C-516.97747148 117.53041107 -509.26279065 111.12914659 -501 105 C-500.14792969 104.36449219 -499.29585937 103.72898437 -498.41796875 103.07421875 C-462.64193305 77.26563578 -420.20750637 59.84581795 -379 45 C-378.2585675 44.73274109 -377.51713501 44.46548218 -376.75323486 44.19012451 C-303.8869446 18.00412884 -229.08730332 2.4072001 -152 -4 C-151.26197144 -4.06165344 -150.52394287 -4.12330688 -149.7635498 -4.18682861 C-99.90161672 -8.29545643 -49.55683484 -6.67794364 0 0 Z " fill="#000000" transform="translate(574,67)"/>
</svg>
